<?xml version="1.0" encoding="UTF-8"?>
<svg xmlns="http://www.w3.org/2000/svg" xmlns:xlink="http://www.w3.org/1999/xlink" viewBox="0 0 698.99 177.89">
  <defs>
    <style>
      .cls-1 {
        fill: url(#Dégradé_sans_nom_23);
      }

      .cls-2 {
        isolation: isolate;
      }

      .cls-3 {
        fill: url(#linear-gradient);
        mix-blend-mode: multiply;
      }
    </style>
    <linearGradient id="Dégradé_sans_nom_23" data-name="Dégradé sans nom 23" x1="497.09" y1="82.13" x2="497.09" y2="0" gradientUnits="userSpaceOnUse">
      <stop offset=".11" stop-color="#7209b7"/>
      <stop offset=".24" stop-color="#9d307c"/>
      <stop offset=".46" stop-color="#e06c23"/>
      <stop offset=".55" stop-color="#fb8500"/>
      <stop offset=".58" stop-color="#df8817"/>
      <stop offset=".65" stop-color="#9c8f51"/>
      <stop offset=".71" stop-color="#67957f"/>
      <stop offset=".76" stop-color="#419aa0"/>
      <stop offset=".81" stop-color="#299db4"/>
      <stop offset=".83" stop-color="#219ebc"/>
    </linearGradient>
    <linearGradient id="linear-gradient" x1="150.91" y1="110.95" x2="190.77" y2="150.81" gradientUnits="userSpaceOnUse">
      <stop offset=".11" stop-color="#fff"/>
      <stop offset=".61" stop-color="#878787"/>
      <stop offset=".95" stop-color="#fff"/>
    </linearGradient>
  </defs>
  <g class="cls-2">
    <g id="Calque_1">
      <path d="M63.21,23.44L49.68,0h55.66c17.58,0,26.37,8.79,26.37,26.37s-8.79,26.37-26.37,26.37h-26.37l.02,43.39-23-1-.46-65.83h49.8c1.95,0,2.93-.98,2.93-2.93s-.98-2.93-2.93-2.93h-42.13Z"/>
      <path d="M222.83,23.44L209.83.93C209.59.52,209.89,0,210.37,0h54.59c14.39,0,26.25,11.54,26.37,25.92.1,11.57-3.56,19.4-10.96,23.47l18.87,32.64h-27.01l-16.93-29.3h-16.7l.4,43.39h-24l.17-66.83h49.8c1.6,0,2.92-1.29,2.93-2.88.02-1.98-.96-2.98-2.93-2.98h-42.13Z"/>
      <path class="cls-1" d="M698.99,24.13l-380.65-.69v5.86l380.65,2.83v21l-380.65-.39v5.86l380.65.53v23l-403.8-.1V0h403.8v24.13Z"/>
      <path d="M18.6,113.44l-13.54-23.44h55.66c17.58,0,26.37,8.79,26.37,26.37,0,5.86-.98,10.74-2.93,14.65,1.95,3.91,2.93,8.79,2.93,14.65,0,17.58-8.79,26.37-26.37,26.37H28.47l-13.59-23.44h45.86c1.95,0,2.93-.98,2.93-2.93s-.98-2.93-2.93-2.93H13.54L0,119.3h60.73c1.95,0,2.93-.98,2.93-2.93s-.98-2.93-2.93-2.93H18.6Z"/>
      <path d="M265.95,172.03l-13.54-23.44h55.66c1.95,0,2.93-.98,2.93-2.93s-.98-2.93-2.93-2.93h-23.44c-17.58,0-26.37-8.79-26.37-26.37s8.79-26.37,26.37-26.37h55.66l-13.54,23.44h-42.13c-1.95,0-2.93.98-2.93,2.93s.98,2.93,2.93,2.93h23.44c17.58,0,26.37,8.79,26.37,26.37s-8.79,26.37-26.37,26.37h-42.13Z"/>
      <path d="M368.6,113.44v52.73l-23.44,11.72v-64.45h-18.69l-13.54-23.44,386.05-1.93v23.06s-330.39,2.31-330.39,2.31Z"/>
      <path d="M131.85,51.52V.04h26.02v51.48c0,8.58,4.34,12.87,13.01,12.87s13.01-4.29,13.01-12.87V.04h26.02v51.48c0,25.74-13.01,38.61-39.04,38.61s-39.04-12.87-39.04-38.61Z"/>
      <path class="cls-3" d="M201.77,145.53c-6.7-4.83-13.21-13.22-18.81-20.43l-1.66-2.13c-1.03-1.31-2.04-2.63-3.04-3.93-4.37-5.67-8.95-11.61-14.12-16.86l-18.75,18.75c3.58,3.7,7.39,8.54,11.83,14.31,1.04,1.34,2.08,2.7,3.14,4.05l1.62,2.09c5.74,7.4,12.56,16.18,20.88,23.06l18.9-18.9Z"/>
      <path d="M130.39,86.17c22.56,0,36.01,17.46,47.87,32.86,1,1.3,2.02,2.62,3.04,3.93l1.66,2.13c8.45,10.89,18.96,24.44,29.08,24.44s18.41-8.26,18.41-18.41h26.54c0,24.79-20.17,44.95-44.95,44.95-23.12,0-38.68-20.06-50.05-34.71l-1.62-2.09c-1.06-1.36-2.1-2.71-3.14-4.05-10.75-13.96-17.8-22.52-26.84-22.52-10.15,0-18.41,8.26-18.41,18.41h-26.54c0-24.79,20.17-44.95,44.95-44.95"/>
      <path d="M212.04,86.17c24.79,0,44.95,20.17,44.95,44.95h-26.54c0-10.15-8.26-18.41-18.41-18.41s-20.63,13.55-29.08,24.44l-1.66,2.13c-1.03,1.31-2.04,2.63-3.04,3.93-11.86,15.4-25.31,32.86-47.87,32.86-24.79,0-44.95-20.17-44.95-44.95h26.54c0,10.15,8.26,18.41,18.41,18.41,9.04,0,16.09-8.56,26.84-22.52,1.04-1.34,2.08-2.7,3.14-4.05l1.62-2.09c11.37-14.65,26.93-34.71,50.05-34.71"/>
    </g>
  </g>
</svg>