<?xml version="1.0" encoding="UTF-8"?>
<svg id="layer" xmlns="http://www.w3.org/2000/svg" viewBox="0 0 450 450">
  <defs>
    <style>
      .cls-1 {
        fill: #3ebde5;
      }

      .cls-1, .cls-2, .cls-3, .cls-4, .cls-5, .cls-6, .cls-7, .cls-8, .cls-9, .cls-10, .cls-11 {
        stroke-width: 0px;
      }

      .cls-2 {
        fill: #30a8da;
      }

      .cls-3 {
        fill: #238bc8;
      }

      .cls-4 {
        fill: #fff;
      }

      .cls-5 {
        fill: #0966a3;
      }

      .cls-6 {
        fill: #0d68a1;
      }

      .cls-7 {
        fill: #157eb7;
      }

      .cls-8 {
        fill: #146eaa;
      }

      .cls-9 {
        fill: #005f93;
      }

      .cls-10 {
        fill: #004772;
      }

      .cls-11 {
        fill: #024f85;
      }
    </style>
  </defs>
  <rect class="cls-4" width="450" height="450"/>
  <g>
    <polygon class="cls-9" points="231.61 145.76 216.59 146.19 239.67 129.65 231.61 145.76"/>
    <polygon class="cls-9" points="216.59 146.19 205.49 147.72 205.49 138.14 216.59 146.19"/>
    <polygon class="cls-5" points="216.59 146.19 239.67 129.65 205.49 138.14 216.59 146.19"/>
    <polygon class="cls-6" points="231.61 145.76 216.59 146.19 230.09 161.21 231.61 145.76"/>
    <polygon class="cls-7" points="231.61 145.76 239.67 129.65 230.09 161.21 231.61 145.76"/>
    <polygon class="cls-8" points="190.26 147.09 205.49 147.72 205.49 138.14 190.26 147.09"/>
    <polygon class="cls-9" points="190.26 147.09 205.49 147.72 189.84 153.01 190.26 147.09"/>
    <polygon class="cls-8" points="220.34 126.84 239.67 129.65 205.49 138.14 220.34 126.84"/>
    <polygon class="cls-7" points="220.34 126.84 207.51 127.43 205.49 138.14 220.34 126.84"/>
    <polygon class="cls-2" points="220.34 126.84 224.01 120.01 207.51 127.43 220.34 126.84"/>
    <polygon class="cls-3" points="194.82 138.88 207.51 127.43 205.49 138.14 194.82 138.88"/>
    <polygon class="cls-7" points="194.82 138.88 190.26 147.09 205.49 138.14 194.82 138.88"/>
    <polygon class="cls-2" points="194.82 138.88 189.13 135.82 207.51 127.43 194.82 138.88"/>
    <polygon class="cls-3" points="194.82 138.88 190.26 147.09 183.01 138.76 194.82 138.88"/>
    <polygon class="cls-7" points="220.34 126.84 239.67 129.65 224.01 120.01 220.34 126.84"/>
    <polygon class="cls-3" points="237.09 122.68 239.67 129.65 224.01 120.01 237.09 122.68"/>
    <polygon class="cls-2" points="237.09 122.68 237.67 118.34 224.01 120.01 237.09 122.68"/>
    <polygon class="cls-7" points="237.09 122.68 239.67 129.65 237.67 118.34 237.09 122.68"/>
    <polygon class="cls-8" points="240.76 145.38 239.67 129.65 230.09 161.21 240.76 145.38"/>
    <polygon class="cls-9" points="240.76 145.38 249.38 159.01 230.09 161.21 240.76 145.38"/>
    <polygon class="cls-7" points="223.01 174.26 216.59 146.19 230.09 161.21 223.01 174.26"/>
    <polygon class="cls-8" points="190.26 147.09 183.01 144.51 189.84 153.01 190.26 147.09"/>
    <polygon class="cls-7" points="190.26 147.09 183.01 144.51 183.01 138.76 190.26 147.09"/>
    <polygon class="cls-2" points="173.38 146.38 183.01 144.51 174.51 161.88 173.38 146.38"/>
    <polygon class="cls-2" points="178.32 237.1 177.53 233.33 197.77 247.61 178.32 237.1"/>
    <polygon class="cls-2" points="57.35 219.3 50.85 211.84 78.75 211.68 57.35 219.3"/>
    <polygon class="cls-2" points="202.01 341.27 205.26 334.76 218.19 339.18 202.01 341.27"/>
    <polygon class="cls-2" points="106.01 382.26 115.76 378.76 119.26 389.76 106.01 382.26"/>
    <polygon class="cls-7" points="185.63 172.88 183.01 144.51 180.59 159.34 185.63 172.88"/>
    <polygon class="cls-3" points="185.63 172.88 182.13 183.38 174.51 161.88 185.63 172.88"/>
    <polygon class="cls-7" points="190.13 165.01 183.01 144.51 189.84 153.01 190.13 165.01"/>
    <polygon class="cls-8" points="190.13 165.01 183.01 144.51 185.63 172.88 190.13 165.01"/>
    <polygon class="cls-7" points="190.13 165.01 192.11 185.59 185.63 172.88 190.13 165.01"/>
    <polygon class="cls-8" points="182.13 183.38 192.11 185.59 185.63 172.88 182.13 183.38"/>
    <polygon class="cls-8" points="182.13 183.38 185.59 194.51 188.26 188.68 182.13 183.38"/>
    <polygon class="cls-3" points="192.11 185.59 185.59 194.51 188.26 188.68 192.11 185.59"/>
    <polygon class="cls-2" points="192.11 185.59 185.59 194.51 201.42 195.51 192.11 185.59"/>
    <polygon class="cls-3" points="185.76 206.51 185.59 194.51 195.42 206.18 185.76 206.51"/>
    <polygon class="cls-7" points="201.42 195.51 185.59 194.51 195.42 206.18 201.42 195.51"/>
    <polygon class="cls-2" points="201.42 195.51 204.59 210.84 195.42 206.18 201.42 195.51"/>
    <polygon class="cls-9" points="190.92 213.51 204.59 210.84 195.42 206.18 190.92 213.51"/>
    <polygon class="cls-3" points="201.42 195.51 204.59 210.84 205.59 203.84 201.42 195.51"/>
    <polygon class="cls-11" points="262.01 171.51 249.38 159.01 230.09 161.21 262.01 171.51"/>
    <polygon class="cls-9" points="262.01 171.51 249.38 159.01 272.62 165.75 262.01 171.51"/>
    <polygon class="cls-6" points="272.62 155.45 249.38 159.01 272.62 165.75 272.62 155.45"/>
    <polygon class="cls-7" points="272.62 155.45 249.38 159.01 258.51 137.01 272.62 155.45"/>
    <polygon class="cls-5" points="240.76 145.38 249.38 159.01 239.67 129.65 240.76 145.38"/>
    <polygon class="cls-11" points="232.56 195.86 223.01 174.26 230.09 161.21 232.56 195.86"/>
    <polygon class="cls-6" points="232.56 195.86 223.01 174.26 225.3 188.63 232.56 195.86"/>
    <polygon class="cls-3" points="239.67 129.65 249.38 159.01 258.51 137.01 239.67 129.65"/>
    <polygon class="cls-2" points="239.67 129.65 237.67 118.34 258.51 137.01 239.67 129.65"/>
    <polygon class="cls-3" points="256.15 120.21 237.67 118.34 258.51 137.01 256.15 120.21"/>
    <polygon class="cls-7" points="256.15 120.21 237.67 118.34 235.92 105.65 256.15 120.21"/>
    <polygon class="cls-8" points="256.15 120.21 258.03 116.16 235.92 105.65 256.15 120.21"/>
    <polygon class="cls-11" points="268.69 116.76 258.03 116.16 251.29 108.04 268.69 116.76"/>
    <polygon class="cls-9" points="268.69 116.76 250.05 99.22 251.29 108.04 268.69 116.76"/>
    <polygon class="cls-9" points="235.92 105.65 258.03 116.16 251.29 108.04 235.92 105.65"/>
    <polygon class="cls-8" points="235.92 105.65 250.05 99.22 251.29 108.04 235.92 105.65"/>
    <polygon class="cls-9" points="235.92 105.65 250.05 99.22 230.37 88.59 235.92 105.65"/>
    <polygon class="cls-2" points="252.72 89.75 250.05 99.22 247.76 86.88 252.72 89.75"/>
    <polygon class="cls-7" points="243.45 90.32 250.05 99.22 247.76 86.88 243.45 90.32"/>
    <polygon class="cls-8" points="243.45 90.32 250.05 99.22 230.37 88.59 243.45 90.32"/>
    <polygon class="cls-7" points="268.69 116.76 250.05 99.22 271.57 108.46 268.69 116.76"/>
    <polygon class="cls-3" points="252.72 89.75 250.05 99.22 271.57 108.46 252.72 89.75"/>
    <polygon class="cls-7" points="252.72 89.75 273.06 102.46 271.57 108.46 252.72 89.75"/>
    <polygon class="cls-2" points="272.37 92.44 273.06 102.46 275.05 102.41 272.37 92.44"/>
    <polygon class="cls-3" points="272.37 92.44 273.06 102.46 265.87 92.44 272.37 92.44"/>
    <polygon class="cls-2" points="252.72 89.75 273.06 102.46 265.87 92.44 252.72 89.75"/>
    <polygon class="cls-3" points="252.72 89.75 258.79 83.64 265.87 92.44 252.72 89.75"/>
    <polygon class="cls-7" points="266.41 86.91 258.79 83.64 265.87 92.44 266.41 86.91"/>
    <polygon class="cls-8" points="266.41 86.91 272.37 92.44 265.87 92.44 266.41 86.91"/>
    <polygon class="cls-11" points="266.41 86.91 272.37 92.44 272.18 87.31 266.41 86.91"/>
    <polygon class="cls-3" points="266.41 86.91 258.79 83.64 272.18 87.31 266.41 86.91"/>
    <polygon class="cls-8" points="267.33 80.98 258.79 83.64 272.18 87.31 267.33 80.98"/>
    <polygon class="cls-3" points="267.33 80.98 270.61 76.8 272.18 87.31 267.33 80.98"/>
    <polygon class="cls-7" points="267.33 80.98 270.61 76.8 261.2 70.61 267.33 80.98"/>
    <polygon class="cls-9" points="267.33 80.98 258.79 83.64 261.2 70.61 267.33 80.98"/>
    <polygon class="cls-9" points="252.72 89.75 258.79 83.64 247.76 86.88 252.72 89.75"/>
    <polygon class="cls-9" points="243.45 90.32 230.37 88.59 247.76 86.88 243.45 90.32"/>
    <polygon class="cls-8" points="234.43 77.22 230.37 88.59 247.76 86.88 234.43 77.22"/>
    <polygon class="cls-9" points="247.76 86.88 246.31 70.02 243.09 76.41 247.76 86.88"/>
    <polygon class="cls-8" points="258.79 83.64 246.31 70.02 247.76 86.88 258.79 83.64"/>
    <polygon class="cls-9" points="258.79 83.64 246.31 70.02 256.47 75.58 258.79 83.64"/>
    <polygon class="cls-8" points="258.79 83.64 261.2 70.61 256.47 75.58 258.79 83.64"/>
    <polygon class="cls-2" points="246.31 70.02 261.2 70.61 256.47 75.58 246.31 70.02"/>
    <polygon class="cls-6" points="213.74 83.79 230.37 88.59 215.07 91.77 213.74 83.79"/>
    <polygon class="cls-11" points="213.74 83.79 230.37 88.59 231.62 85.1 213.74 83.79"/>
    <polygon class="cls-9" points="213.74 83.79 220.05 79.58 231.62 85.1 213.74 83.79"/>
    <polygon class="cls-9" points="161.97 82.26 168.22 73.26 170.72 75.51 161.97 82.26"/>
    <polygon class="cls-9" points="158.04 145.81 157.97 143.79 163.75 144.13 158.04 145.81"/>
    <polygon class="cls-9" points="186.1 254.47 186.11 247.19 201.54 254.54 186.1 254.47"/>
    <polygon class="cls-9" points="133.01 334.51 136.01 317.76 140.29 334.54 133.01 334.51"/>
    <polygon class="cls-9" points="35.76 338.68 47.77 333.9 61.04 341.02 35.76 338.68"/>
    <polygon class="cls-9" points="220.51 365.26 231.01 365.51 232.76 375.76 220.51 365.26"/>
    <polygon class="cls-11" points="213.74 83.79 197.19 86.56 215.07 91.77 213.74 83.79"/>
    <polygon class="cls-3" points="194.97 99.92 201.02 91.62 215.07 91.77 194.97 99.92"/>
    <polygon class="cls-3" points="174.13 69.38 183.26 70.01 191.26 79.01 174.13 69.38"/>
    <polygon class="cls-3" points="220.63 75.26 222.51 68.88 227.88 78.38 220.63 75.26"/>
    <polygon class="cls-8" points="194.97 99.92 214.76 102.32 215.07 91.77 194.97 99.92"/>
    <polygon class="cls-9" points="230.37 88.59 214.76 102.32 215.07 91.77 230.37 88.59"/>
    <polygon class="cls-7" points="194.97 99.92 201.02 91.62 191 83.21 194.97 99.92"/>
    <polygon class="cls-7" points="186.76 85.68 184.42 78.18 172.92 81.68 186.76 85.68"/>
    <polygon class="cls-7" points="183.23 133.39 175.17 127.84 168.92 131.34 183.23 133.39"/>
    <polygon class="cls-7" points="116.1 233.08 107.05 231.49 104.86 241.06 116.1 233.08"/>
    <polygon class="cls-7" points="271.82 274.55 256.25 275.58 251.76 279.51 271.82 274.55"/>
    <polygon class="cls-7" points="172.15 185.24 162.43 186.71 157.85 183.2 172.15 185.24"/>
    <polygon class="cls-7" points="223.09 193.18 216.42 184.34 214.59 195.01 223.09 193.18"/>
    <polygon class="cls-7" points="178.29 212.56 163.19 214.65 172.75 220.18 178.29 212.56"/>
    <polygon class="cls-7" points="122.42 192.01 89.09 181.34 97.8 188.48 122.42 192.01"/>
    <polygon class="cls-7" points="299.23 138.64 291.09 129.76 293.26 138.76 299.23 138.64"/>
    <polygon class="cls-7" points="141.09 95.34 123.28 90.39 125.76 96.01 141.09 95.34"/>
    <polygon class="cls-7" points="249.26 310.01 238.52 297.74 240.76 310.01 249.26 310.01"/>
    <polygon class="cls-7" points="204.11 68.91 199.83 64.95 198.04 68.04 204.11 68.91"/>
    <polygon class="cls-9" points="206.08 79.64 220.05 79.58 197.19 86.56 206.08 79.64"/>
    <polygon class="cls-8" points="206.08 79.64 193.29 75.68 197.19 86.56 206.08 79.64"/>
    <polygon class="cls-2" points="206.08 79.64 193.29 75.68 220.05 79.58 206.08 79.64"/>
    <polygon class="cls-11" points="230.37 88.59 214.76 102.32 223.97 100.08 230.37 88.59"/>
    <polygon class="cls-10" points="206.04 108.33 214.76 102.32 223.97 100.08 206.04 108.33"/>
    <polygon class="cls-11" points="206.04 108.33 214.76 102.32 194.97 99.92 206.04 108.33"/>
    <polygon class="cls-10" points="206.04 108.33 182.09 105.52 195.56 104.05 206.04 108.33"/>
    <polygon class="cls-9" points="206.04 108.33 194.97 99.92 195.56 104.05 206.04 108.33"/>
    <polygon class="cls-8" points="182.09 105.52 194.97 99.92 195.56 104.05 182.09 105.52"/>
    <polygon class="cls-7" points="182.09 105.52 194.97 99.92 177.97 98.49 182.09 105.52"/>
    <polygon class="cls-1" points="177.56 88.88 186.78 95.97 177.97 98.49 177.56 88.88"/>
    <polygon class="cls-1" points="151.6 127.3 160.81 134.39 150.25 131.33 151.6 127.3"/>
    <polygon class="cls-1" points="241.51 64.63 240.28 69.72 231.47 72.24 241.51 64.63"/>
    <polygon class="cls-1" points="291.68 121.69 292.5 125.34 286.51 122.59 291.68 121.69"/>
    <polygon class="cls-1" points="150.23 85.55 161.59 85.84 157.06 89.7 150.23 85.55"/>
    <polygon class="cls-2" points="272.62 155.45 256.15 120.21 258.51 137.01 272.62 155.45"/>
    <polygon class="cls-11" points="262.01 171.51 263.51 180.76 272.62 165.75 262.01 171.51"/>
    <polygon class="cls-5" points="262.01 171.51 263.51 180.76 230.09 161.21 262.01 171.51"/>
    <polygon class="cls-5" points="232.56 195.86 244.26 180.51 230.09 161.21 232.56 195.86"/>
    <polygon class="cls-7" points="263.51 180.76 244.26 180.51 230.09 161.21 263.51 180.76"/>
    <polygon class="cls-9" points="263.51 180.76 244.26 180.51 232.56 195.86 263.51 180.76"/>
    <polygon class="cls-3" points="232.56 195.86 214.76 220.76 224.6 200.24 232.56 195.86"/>
    <polygon class="cls-7" points="232.56 195.86 214.76 220.76 231.76 222.01 232.56 195.86"/>
    <polygon class="cls-2" points="208.76 227.26 214.76 220.76 231.76 222.01 208.76 227.26"/>
    <polygon class="cls-3" points="208.76 227.26 205.76 237.76 231.76 222.01 208.76 227.26"/>
    <polygon class="cls-6" points="209.26 249.26 205.76 237.76 218.51 251.01 209.26 249.26"/>
    <polygon class="cls-9" points="252.69 259.81 205.76 237.76 218.51 251.01 252.69 259.81"/>
    <polygon class="cls-7" points="239.76 246.51 205.76 237.76 231.76 222.01 239.76 246.51"/>
    <polygon class="cls-6" points="239.76 246.51 205.76 237.76 252.69 259.81 239.76 246.51"/>
    <polygon class="cls-10" points="209.26 249.26 241.78 260.6 218.51 251.01 209.26 249.26"/>
    <polygon class="cls-11" points="209.26 249.26 218.38 259.37 241.78 260.6 209.26 249.26"/>
    <polygon class="cls-10" points="217.06 292.37 218.38 259.37 241.78 260.6 217.06 292.37"/>
    <polygon class="cls-9" points="198.01 269.76 218.38 259.37 207.19 257.21 198.01 269.76"/>
    <polygon class="cls-5" points="198.01 269.76 218.38 259.37 217.06 292.37 198.01 269.76"/>
    <polygon class="cls-3" points="198.01 269.76 188.61 292.85 200.26 284.26 198.01 269.76"/>
    <polygon class="cls-7" points="198.01 269.76 217.06 292.37 200.26 284.26 198.01 269.76"/>
    <polygon class="cls-5" points="204.92 309.18 217.06 292.37 200.26 284.26 204.92 309.18"/>
    <polygon class="cls-9" points="204.92 309.18 185.09 301.51 200.26 284.26 204.92 309.18"/>
    <polygon class="cls-10" points="204.92 309.18 187.76 320.01 201.42 314.34 204.92 309.18"/>
    <polygon class="cls-11" points="204.92 309.18 187.76 320.01 185.09 301.51 204.92 309.18"/>
    <polygon class="cls-3" points="170.59 307.34 168.26 322.01 185.09 301.51 170.59 307.34"/>
    <polygon class="cls-2" points="170.59 307.34 168.26 322.01 153.42 329.51 170.59 307.34"/>
    <polygon class="cls-5" points="187.76 320.01 168.26 322.01 185.09 301.51 187.76 320.01"/>
    <polygon class="cls-9" points="187.76 320.01 168.26 322.01 174.59 333.51 187.76 320.01"/>
    <polygon class="cls-11" points="149.92 343.84 168.26 322.01 174.59 333.51 149.92 343.84"/>
    <polygon class="cls-5" points="149.92 343.84 168.26 322.01 153.42 329.51 149.92 343.84"/>
    <polygon class="cls-3" points="149.92 343.84 135.09 359.68 144.18 344.73 149.92 343.84"/>
    <polygon class="cls-9" points="149.92 343.84 149.42 356.01 174.59 333.51 149.92 343.84"/>
    <polygon class="cls-11" points="149.92 343.84 149.42 356.01 135.09 359.68 149.92 343.84"/>
    <polygon class="cls-10" points="146.19 367.17 149.42 356.01 135.09 359.68 146.19 367.17"/>
    <polygon class="cls-2" points="135.42 351.34 144.18 344.73 135.09 359.68 135.42 351.34"/>
    <polygon class="cls-1" points="135.42 351.34 123.3 354.61 135.09 359.68 135.42 351.34"/>
    <polygon class="cls-9" points="127.42 370.21 123.3 354.61 135.09 359.68 127.42 370.21"/>
    <polygon class="cls-11" points="127.42 370.21 146.19 367.17 135.09 359.68 127.42 370.21"/>
    <polygon class="cls-3" points="134.42 383.12 144.19 367.17 138.43 393.65 134.42 383.12"/>
    <polygon class="cls-9" points="134.42 383.12 146.19 367.17 127.42 370.21 134.42 383.12"/>
    <polygon class="cls-11" points="134.42 383.12 133.57 394.36 127.42 370.21 134.42 383.12"/>
    <polygon class="cls-9" points="134.42 383.12 133.57 394.36 140.43 393.65 134.42 383.12"/>
    <polygon class="cls-11" points="142.96 402.83 133.57 394.36 140.43 393.65 142.96 402.83"/>
    <polygon class="cls-9" points="142.96 402.83 133.57 394.36 140.36 404.93 142.96 402.83"/>
    <polygon class="cls-10" points="133.4 400.74 133.57 394.36 140.36 404.93 133.4 400.74"/>
    <polygon class="cls-11" points="133.4 400.74 133.57 394.36 125.35 385.64 133.4 400.74"/>
    <polygon class="cls-9" points="127.42 370.21 133.57 394.36 125.35 385.64 127.42 370.21"/>
    <polygon class="cls-11" points="118.42 370.21 110.26 367.58 105.95 361.06 118.42 370.21"/>
    <polygon class="cls-7" points="263.51 180.76 257.58 205.23 232.56 195.86 263.51 180.76"/>
    <polygon class="cls-5" points="231.76 222.01 245.7 212.95 232.56 195.86 231.76 222.01"/>
    <polygon class="cls-9" points="257.58 205.23 245.7 212.95 232.56 195.86 257.58 205.23"/>
    <polygon class="cls-5" points="257.58 205.23 245.7 212.95 254.04 222.15 257.58 205.23"/>
    <polygon class="cls-7" points="231.76 222.01 245.7 212.95 254.04 222.15 231.76 222.01"/>
    <polygon class="cls-3" points="239.76 246.51 254.04 222.15 231.76 222.01 239.76 246.51"/>
    <polygon class="cls-2" points="239.76 246.51 254.04 222.15 263.06 225.58 239.76 246.51"/>
    <polygon class="cls-3" points="239.76 246.51 284.67 248.85 263.06 225.58 239.76 246.51"/>
    <polygon class="cls-9" points="239.76 246.51 284.67 248.85 252.69 259.81 239.76 246.51"/>
    <polygon class="cls-2" points="292.56 241.14 284.67 248.85 263.06 225.58 292.56 241.14"/>
    <polygon class="cls-6" points="282.55 263.02 284.67 248.85 252.69 259.81 282.55 263.02"/>
    <polygon class="cls-11" points="282.55 263.02 292.92 271.02 252.69 259.81 282.55 263.02"/>
    <polygon class="cls-9" points="282.55 263.02 284.67 248.85 308.5 274.57 282.55 263.02"/>
    <polygon class="cls-10" points="282.55 263.02 292.92 271.02 308.5 274.57 282.55 263.02"/>
    <polygon class="cls-3" points="311.93 260.99 284.67 248.85 308.5 274.57 311.93 260.99"/>
    <polygon class="cls-2" points="311.93 260.99 284.67 248.85 301.27 246.53 311.93 260.99"/>
    <polygon class="cls-3" points="292.56 241.14 284.67 248.85 301.27 246.53 292.56 241.14"/>
    <polygon class="cls-7" points="311.93 260.99 320.49 264.85 308.5 274.57 311.93 260.99"/>
    <polygon class="cls-1" points="311.93 260.99 320.49 264.85 301.27 246.53 311.93 260.99"/>
    <polygon class="cls-6" points="318.64 273.11 320.49 264.85 308.5 274.57 318.64 273.11"/>
    <polygon class="cls-9" points="318.64 273.11 299.26 293.51 308.5 274.57 318.64 273.11"/>
    <polygon class="cls-11" points="292.92 271.02 299.26 293.51 308.5 274.57 292.92 271.02"/>
    <polygon class="cls-10" points="292.92 271.02 271.15 286.91 291.84 277.15 292.92 271.02"/>
    <polygon class="cls-9" points="299.26 293.51 271.15 286.91 291.84 277.15 299.26 293.51"/>
    <polygon class="cls-7" points="299.26 293.51 271.15 286.91 280.97 303.36 299.26 293.51"/>
    <polygon class="cls-10" points="262.45 307.47 271.15 286.91 271.78 300.11 262.45 307.47"/>
    <polygon class="cls-11" points="280.97 303.36 271.15 286.91 271.78 300.11 280.97 303.36"/>
    <polygon class="cls-6" points="299.26 293.51 286.35 306.54 280.97 303.36 299.26 293.51"/>
    <polygon class="cls-11" points="262.45 307.47 286.35 306.54 280.97 303.36 262.45 307.47"/>
    <polygon class="cls-9" points="262.45 307.47 269.66 313.92 251.51 322.41 262.45 307.47"/>
    <polygon class="cls-6" points="262.45 307.47 269.66 313.92 286.35 306.54 262.45 307.47"/>
    <polygon class="cls-11" points="242.67 340.9 269.66 313.92 251.51 322.41 242.67 340.9"/>
    <polygon class="cls-10" points="242.67 340.9 241.17 332.03 251.51 322.41 242.67 340.9"/>
    <polygon class="cls-6" points="236.67 340.9 235.17 332.03 226.85 337.07 236.67 340.9"/>
    <polygon class="cls-9" points="242.67 340.9 269.66 313.92 286.35 306.54 242.67 340.9"/>
    <polygon class="cls-7" points="242.67 340.9 263.4 330.32 286.35 306.54 242.67 340.9"/>
    <polygon class="cls-6" points="242.67 340.9 263.4 330.32 257.42 340.62 242.67 340.9"/>
    <polygon class="cls-9" points="242.67 340.9 244.67 357.19 257.42 340.62 242.67 340.9"/>
    <polygon class="cls-9" points="224.51 345.69 228.67 342.6 244.67 357.19 224.51 345.69"/>
    <polygon class="cls-10" points="224.51 345.69 225.26 350.99 244.67 357.19 224.51 345.69"/>
    <polygon class="cls-6" points="262.5 362.54 244.67 357.19 257.42 340.62 262.5 362.54"/>
    <polygon class="cls-3" points="262.5 362.54 244.67 357.19 270.93 373.26 262.5 362.54"/>
    <polygon class="cls-7" points="271.82 378.13 244.67 357.19 270.93 373.26 271.82 378.13"/>
    <polygon class="cls-6" points="271.82 378.13 244.67 357.19 260.4 376.35 271.82 378.13"/>
    <polygon class="cls-9" points="249.81 369.65 244.67 357.19 260.4 376.35 249.81 369.65"/>
    <polygon class="cls-10" points="269.01 185.01 263.51 180.76 272.62 165.75 269.01 185.01"/>
    <polygon class="cls-11" points="269.01 185.01 278.13 181.42 282.12 196.36 269.01 185.01"/>
    <polygon class="cls-9" points="269.01 185.01 278.13 181.42 272.62 165.75 269.01 185.01"/>
    <polygon class="cls-7" points="285.07 178.29 278.13 181.42 272.62 165.75 285.07 178.29"/>
    <polygon class="cls-10" points="290.42 196.01 278.13 181.42 282.12 196.36 290.42 196.01"/>
    <polygon class="cls-11" points="290.42 196.01 278.13 181.42 285.07 178.29 290.42 196.01"/>
    <polygon class="cls-10" points="290.42 196.01 301.23 180.73 295.15 176.73 290.42 196.01"/>
    <polygon class="cls-9" points="290.42 196.01 285.07 178.29 295.15 176.73 290.42 196.01"/>
    <polygon class="cls-2" points="301.4 158.66 285.07 178.29 295.15 176.73 301.4 158.66"/>
    <polygon class="cls-7" points="301.4 158.66 309.74 161.44 295.15 176.73 301.4 158.66"/>
    <polygon class="cls-11" points="301.23 180.73 309.74 161.44 295.15 176.73 301.23 180.73"/>
    <polygon class="cls-10" points="301.4 158.66 309.74 161.44 314.43 153.63 301.4 158.66"/>
    <polygon class="cls-11" points="301.4 158.66 307.14 140.77 314.43 153.63 301.4 158.66"/>
    <polygon class="cls-9" points="319.3 147.37 307.14 140.77 314.43 153.63 319.3 147.37"/>
    <polygon class="cls-11" points="319.3 147.37 307.14 140.77 319.99 139.73 319.3 147.37"/>
    <polygon class="cls-7" points="310.44 130.35 307.14 140.77 319.99 139.73 310.44 130.35"/>
    <polygon class="cls-2" points="310.44 130.35 307.14 140.77 304.18 135.38 310.44 130.35"/>
    <polygon class="cls-7" points="300.71 142.85 307.14 140.77 301.4 158.66 300.71 142.85"/>
    <polygon class="cls-8" points="185.63 172.88 174.51 161.88 180.59 159.34 185.63 172.88"/>
    <polygon class="cls-11" points="247.76 86.88 234.43 77.22 243.09 76.41 247.76 86.88"/>
    <polygon class="cls-7" points="136.53 159.77 128.41 159.96 143.47 146.69 136.53 159.77"/>
    <polygon class="cls-7" points="153.22 283.22 145.76 283.01 170.7 270.42 153.22 283.22"/>
    <polygon class="cls-7" points="97.26 346.26 92.01 348.26 110.26 359.76 97.26 346.26"/>
  </g>
</svg>